<?xml version="1.0" encoding="utf-8"?>
<!-- Generator: Adobe Illustrator 24.3.0, SVG Export Plug-In . SVG Version: 6.00 Build 0)  -->
<svg version="1.1" id="Layer_1" xmlns="http://www.w3.org/2000/svg" x="0px" y="0px"
     viewBox="0 0 2892 1380" style="enable-background:new 0 0 2892 1380;" xml:space="preserve">
<style type="text/css">
	@import url('https://fonts.googleapis.com/css2?family=Roboto:wght@700');

	.st0{fill:#353535;}
	.st1{font-family:'Roboto-Bold', 'Roboto'; font-weight: 700;}
	.st2{font-size:945px;}
	.st3{letter-spacing:10px;}
	.st4{fill:#FDBA4B;}
	.st5{fill:#FABD57;}
	.st6{fill:#FCBB4F;}
	.st7{fill:#F69827;}
	.st8{fill:#F69520;}
	.st9{fill:#F7941D;}
	.st10{fill:#F7951F;}
	.st11{fill:#F03F3D;}
	.st12{fill:#EF4745;}
	.st13{fill:#F0403E;}
	.st14{fill:#ED5553;}
	.st15{fill:#EF403E;}
	.st16{fill:#F04240;}
	.st17{fill:#BF2534;}
	.st18{fill:#C02B39;}
	.st19{fill:#BF2232;}
	.st20{fill:#933943;}
	.st21{fill:#7C0714;}
	.st22{fill:#81121E;}
	.st23{fill:#800F1B;}
</style>
  <text transform="matrix(1 0 0 1 0 715.7998)" class="st0 st1 st2 st3">Leonie</text>
  <path id="Rechteck_1" class="st4" d="M99.1,751.7L99.1,751.7c21.5,0,38.9,17.4,38.9,38.9V832c0,21.5-17.4,38.9-38.9,38.9l0,0
	c-21.5,0-38.9-17.4-38.9-38.9v-41.5C60.2,769.1,77.6,751.7,99.1,751.7z"/>
  <path id="Rechteck_2" class="st5" d="M233.8,751.7L233.8,751.7c21.5,0,38.9,17.4,38.9,38.9v147.7c0,21.5-17.4,38.9-38.9,38.9l0,0
	c-21.5,0-38.9-17.4-38.9-38.9V790.6C194.9,769.1,212.4,751.7,233.8,751.7z"/>
  <path id="Rechteck_3" class="st4" d="M375.1,751.7L375.1,751.7c20.8,0,37.6,16.8,37.6,37.6v233.3c0,20.8-16.8,37.6-37.6,37.6l0,0
	c-20.8,0-37.6-16.8-37.6-37.6V789.3C337.5,768.5,354.3,751.7,375.1,751.7z"/>
  <path id="Rechteck_4" class="st6" d="M509.9,751.7L509.9,751.7c20.8,0,37.6,16.8,37.6,37.6v365.4c0,20.8-16.8,37.6-37.6,37.6l0,0
	c-20.8,0-37.6-16.8-37.6-37.6V789.3C472.3,768.5,489.1,751.7,509.9,751.7z"/>
  <path id="Rechteck_5" class="st7" d="M645.9,751.7L645.9,751.7c21.5,0,38.9,17.4,38.9,38.9v528.7c0,21.5-17.4,38.9-38.9,38.9l0,0
	c-21.5,0-38.9-17.4-38.9-38.9V790.6C607,769.1,624.4,751.7,645.9,751.7z"/>
  <path id="Rechteck_6" class="st8" d="M780.7,751.7L780.7,751.7c21.5,0,38.9,17.4,38.9,38.9V1226c0,21.5-17.4,38.9-38.9,38.9l0,0
	c-21.5,0-38.9-17.4-38.9-38.9V790.6C741.8,769.1,759.2,751.7,780.7,751.7z"/>
  <path id="Rechteck_7" class="st9" d="M920.6,751.7L920.6,751.7c21.5,0,38.9,17.4,38.9,38.9v326.6c0,21.5-17.4,38.9-38.9,38.9l0,0
	c-21.5,0-38.9-17.4-38.9-38.9V790.6C881.8,769.1,899.2,751.7,920.6,751.7z"/>
  <path id="Rechteck_8" class="st10" d="M1055.4,751.7L1055.4,751.7c21.5,0,38.9,17.4,38.9,38.9v347.3c0,21.5-17.4,38.9-38.9,38.9l0,0
	c-21.5,0-38.9-17.4-38.9-38.9V790.6C1016.5,769.1,1034,751.7,1055.4,751.7z"/>
  <path id="Rechteck_9" class="st11" d="M1191.5,751.7L1191.5,751.7c20.8,0,37.6,16.8,37.6,37.6v399.1c0,20.8-16.8,37.6-37.6,37.6l0,0
	c-20.8,0-37.6-16.8-37.6-37.6V789.3C1153.9,768.5,1170.7,751.7,1191.5,751.7z"/>
  <path id="Rechteck_10" class="st12" d="M1332.7,751.7L1332.7,751.7c21.5,0,38.9,17.4,38.9,38.9v370.6c0,21.5-17.4,38.9-38.9,38.9
	l0,0c-21.5,0-38.9-17.4-38.9-38.9V790.6C1293.9,769.1,1311.3,751.7,1332.7,751.7z"/>
  <path id="Rechteck_11" class="st13" d="M1467.5,751.7L1467.5,751.7c21.5,0,38.9,17.4,38.9,38.9v406.9c0,21.5-17.4,38.9-38.9,38.9
	l0,0c-21.5,0-38.9-17.4-38.9-38.9V790.6C1428.6,769.1,1446,751.7,1467.5,751.7z"/>
  <path id="Rechteck_12" class="st14" d="M1602.3,751.7L1602.3,751.7c21.5,0,38.9,17.4,38.9,38.9v362.9c0,21.5-17.4,38.9-38.9,38.9
	l0,0c-21.5,0-38.9-17.4-38.9-38.9V790.6C1563.4,769.1,1580.8,751.7,1602.3,751.7z"/>
  <path id="Rechteck_13" class="st15" d="M1737.1,751.7L1737.1,751.7c21.5,0,38.9,17.4,38.9,38.9v282.5c0,21.5-17.4,38.9-38.9,38.9
	l0,0c-21.5,0-38.9-17.4-38.9-38.9V790.6C1698.2,769.1,1715.6,751.7,1737.1,751.7z"/>
  <path id="Rechteck_14" class="st16" d="M1879.6,751.7L1879.6,751.7c21.5,0,38.9,17.4,38.9,38.9v230.7c0,21.5-17.4,38.9-38.9,38.9
	l0,0c-21.5,0-38.9-17.4-38.9-38.9V790.6C1840.7,769.1,1858.1,751.7,1879.6,751.7z"/>
  <path id="Rechteck_15" class="st17" d="M2014.4,751.7L2014.4,751.7c21.5,0,38.9,17.4,38.9,38.9v217.7c0,21.5-17.4,38.9-38.9,38.9
	l0,0c-21.5,0-38.9-17.4-38.9-38.9V790.6C1975.5,769.1,1992.9,751.7,2014.4,751.7z"/>
  <path id="Rechteck_16" class="st18" d="M2149.2,751.7L2149.2,751.7c21.5,0,38.9,17.4,38.9,38.9v186.6c0,21.5-17.4,38.9-38.9,38.9
	l0,0c-21.5,0-38.9-17.4-38.9-38.9V790.6C2110.3,769.1,2127.7,751.7,2149.2,751.7z"/>
  <path id="Rechteck_17" class="st19" d="M2289.1,751.7L2289.1,751.7c21.5,0,38.9,17.4,38.9,38.9v158.1c0,21.5-17.4,38.9-38.9,38.9
	l0,0c-21.5,0-38.9-17.4-38.9-38.9V790.6C2250.2,769.1,2267.6,751.7,2289.1,751.7z"/>
  <path id="Rechteck_18" class="st20" d="M2425.2,751.7L2425.2,751.7c20.8,0,37.6,16.8,37.6,37.6v101.1c0,20.8-16.8,37.6-37.6,37.6
	l0,0c-20.8,0-37.6-16.8-37.6-37.6V789.3C2387.6,768.5,2404.4,751.7,2425.2,751.7z"/>
  <path id="Rechteck_19" class="st21" d="M2560,751.7L2560,751.7c20.8,0,37.6,16.8,37.6,37.6v101.1c0,20.8-16.8,37.6-37.6,37.6l0,0
	c-20.8,0-37.6-16.8-37.6-37.6V789.3C2522.4,768.5,2539.2,751.7,2560,751.7z"/>
  <path id="Rechteck_20" class="st22" d="M2694.7,751.7L2694.7,751.7c20.8,0,37.6,16.8,37.6,37.6v64.8c0,20.8-16.8,37.6-37.6,37.6l0,0
	c-20.8,0-37.6-16.8-37.6-37.6v-64.8C2657.1,768.5,2674,751.7,2694.7,751.7z"/>
  <path id="Rechteck_21" class="st23" d="M2836,751.7L2836,751.7c21.5,0,38.9,17.4,38.9,38.9v15.6c0,21.5-17.4,38.9-38.9,38.9l0,0
	c-21.5,0-38.9-17.4-38.9-38.9v-15.6C2797.1,769.1,2814.5,751.7,2836,751.7z"/>
</svg>
